<svg aria-hidden="true" style="position: absolute; width: 0; height: 0; overflow: hidden;" version="1.1" xmlns="http://www.w3.org/2000/svg" xmlns:xlink="http://www.w3.org/1999/xlink">
<defs>
<symbol id="icon-burger" viewBox="0 0 34 32">
<path fill="#ef3959" style="fill: var(--color1, #ef3959)" d="M32.381 27.429c0.486 0.001 0.952 0.186 1.306 0.52s0.566 0.789 0.594 1.273-0.129 0.962-0.441 1.334c-0.312 0.372-0.754 0.612-1.236 0.669l-0.223 0.013h-30.476c-0.486-0-0.952-0.186-1.305-0.52s-0.565-0.789-0.594-1.273c-0.028-0.485 0.129-0.962 0.441-1.334s0.754-0.612 1.236-0.669l0.223-0.013h30.476zM32.381 14.095c0.505 0 0.99 0.201 1.347 0.558s0.558 0.842 0.558 1.347-0.201 0.99-0.558 1.347c-0.357 0.357-0.842 0.558-1.347 0.558h-30.476c-0.505 0-0.99-0.201-1.347-0.558s-0.558-0.842-0.558-1.347c0-0.505 0.201-0.99 0.558-1.347s0.842-0.558 1.347-0.558h30.476zM32.381 0.762c0.505 0 0.99 0.201 1.347 0.558s0.558 0.842 0.558 1.347-0.201 0.99-0.558 1.347c-0.357 0.357-0.842 0.558-1.347 0.558h-30.476c-0.505 0-0.99-0.201-1.347-0.558s-0.558-0.842-0.558-1.347c0-0.505 0.201-0.99 0.558-1.347s0.842-0.558 1.347-0.558h30.476z"></path>
</symbol>
<symbol id="icon-lang-icon" viewBox="0 0 43 32">
<path fill="#202053" style="fill: var(--color1, #202053)" d="M11.004 12.418v4.552c0 0.64 0.155 1.115 0.465 1.425 0.317 0.31 0.754 0.465 1.311 0.465 0.551 0 0.981-0.155 1.29-0.465 0.317-0.31 0.475-0.785 0.475-1.425v-4.552h0.939v4.542c0 0.599-0.12 1.105-0.361 1.517-0.241 0.406-0.568 0.709-0.981 0.908-0.406 0.2-0.864 0.299-1.373 0.299s-0.97-0.1-1.383-0.299c-0.406-0.2-0.729-0.502-0.97-0.908-0.234-0.413-0.351-0.919-0.351-1.517v-4.542h0.939zM21.304 18.013h-3.138l-0.578 1.6h-0.991l2.601-7.154h1.084l2.591 7.154h-0.991l-0.578-1.6zM21.035 17.249l-1.301-3.634-1.301 3.634h2.601z"></path>
<path fill="#202053" style="fill: var(--color1, #202053)" d="M29.419 17.634c-0.069 0-0.134-0.027-0.182-0.076l-2.753-2.753c-0.095-0.102-0.092-0.26 0.006-0.358s0.257-0.101 0.358-0.006l2.57 2.57 2.57-2.57c0.102-0.095 0.26-0.092 0.358 0.006s0.101 0.257 0.006 0.358l-2.753 2.753c-0.048 0.049-0.114 0.076-0.182 0.076z"></path>
</symbol>
<symbol id="icon-fb" viewBox="0 0 33 32">
<path fill="#202053" style="fill: var(--color1, #202053)" d="M32.5 16c0 8.837-7.163 16-16 16s-16-7.163-16-16c0-8.837 7.163-16 16-16s16 7.163 16 16z"></path>
<path fill="#fff" style="fill: var(--color2, #fff)" d="M13.94 20.8v10.88c0 0.177 0.143 0.32 0.32 0.32h4.48c0.177 0 0.32-0.143 0.32-0.32v-10.88c0-0.177 0.143-0.32 0.32-0.32h3.2c0.177 0 0.32-0.143 0.32-0.32v-3.84c0-0.177-0.143-0.32-0.32-0.32h-3.2c-0.177 0-0.32-0.143-0.32-0.32v-2.88c0-1.28 1.6-1.92 2.24-1.92h1.92c0.177 0 0.32-0.143 0.32-0.32v-3.84c0-0.177-0.143-0.32-0.32-0.32h-4.16c-3.072 0-5.12 3.2-5.12 5.12v4.16c0 0.177-0.143 0.32-0.32 0.32h-3.2c-0.177 0-0.32 0.143-0.32 0.32v3.84c0 0.177 0.143 0.32 0.32 0.32h3.2c0.177 0 0.32 0.143 0.32 0.32z"></path>
</symbol>
<symbol id="icon-insta" viewBox="0 0 32 32">
<path fill="#202053" style="fill: var(--color1, #202053)" d="M5 0h22c2.761 0 5 2.239 5 5v22c0 2.761-2.239 5-5 5h-22c-2.761 0-5-2.239-5-5v-22c0-2.761 2.239-5 5-5z"></path>
<path fill="#fff" style="fill: var(--color2, #fff)" d="M29 6.5c0 1.381-1.119 2.5-2.5 2.5s-2.5-1.119-2.5-2.5c0-1.381 1.119-2.5 2.5-2.5s2.5 1.119 2.5 2.5z"></path>
<path fill="none" stroke="#fff" style="stroke: var(--color2, #fff)" stroke-linejoin="miter" stroke-linecap="butt" stroke-miterlimit="4" stroke-width="3.5" d="M16 23.083c3.912 0 7.083-3.171 7.083-7.083s-3.171-7.083-7.083-7.083-7.083 3.171-7.083 7.083c0 3.912 3.171 7.083 7.083 7.083z"></path>
</symbol>
<symbol id="icon-tg" viewBox="0 0 33 32">
<path fill="#202053" style="fill: var(--color1, #202053)" d="M16.5 32c8.837 0 16-7.163 16-16s-7.163-16-16-16c-8.837 0-16 7.163-16 16s7.163 16 16 16z"></path>
<path fill="#fff" style="fill: var(--color2, #fff)" d="M7.743 15.831c4.664-2.032 7.775-3.372 9.331-4.019 4.443-1.848 5.367-2.169 5.968-2.18 0.132-0.002 0.428 0.030 0.62 0.186 0.162 0.131 0.206 0.309 0.228 0.433s0.048 0.408 0.027 0.63c-0.241 2.53-1.283 8.67-1.813 11.503-0.224 1.199-0.666 1.601-1.093 1.64-0.929 0.085-1.635-0.614-2.535-1.204-1.408-0.923-2.204-1.498-3.571-2.398-1.58-1.041-0.556-1.613 0.345-2.548 0.236-0.245 4.329-3.968 4.409-4.306 0.010-0.042 0.019-0.2-0.074-0.283s-0.232-0.055-0.331-0.032c-0.141 0.032-2.391 1.519-6.749 4.461-0.639 0.439-1.217 0.652-1.735 0.641-0.571-0.012-1.67-0.323-2.487-0.589-1.002-0.326-1.798-0.498-1.729-1.051 0.036-0.288 0.433-0.583 1.19-0.884z"></path>
</symbol>
<symbol id="icon-close" viewBox="0 0 32 32">
<path fill="#ef3959" style="fill: var(--color1, #ef3959)" d="M6.427 2.946l22.627 22.627c0.961 0.961 0.961 2.52 0 3.481s-2.52 0.961-3.481 0l-22.627-22.627c-0.961-0.961-0.961-2.52 0-3.481s2.52-0.961 3.481 0z"></path>
<path fill="#ef3959" style="fill: var(--color1, #ef3959)" d="M2.946 25.573l22.627-22.627c0.961-0.961 2.52-0.961 3.481 0s0.961 2.52 0 3.481l-22.627 22.627c-0.961 0.961-2.52 0.961-3.481 0s-0.961-2.52 0-3.481z"></path>
</symbol>
</defs>
</svg>
